<svg xmlns="http://www.w3.org/2000/svg" width="1280" height="50" version="1.1" viewBox="0 0 338.67 13.229"><metadata/><g fill="#f3f3f3"><path d="m-6.6667e-7 290.79s17.892-14.038 42.333 0c24.441 14.038 42.333 0 42.333 0v-7.0189h-84.667z" transform="translate(0 -283.77)"/><path d="m84.667 290.79s17.892-14.038 42.333 0c24.441 14.038 42.333 0 42.333 0v-7.0189h-84.667z" transform="translate(0 -283.77)"/><path d="m169.33 290.79s17.892-14.038 42.333 0c24.441 14.038 42.333 0 42.333 0v-7.0189h-84.667z" transform="translate(0 -283.77)"/><path d="m254 290.79s17.892-14.038 42.333 0c24.441 14.038 42.333 0 42.333 0v-7.0189h-84.667z" transform="translate(0 -283.77)"/></g></svg>