<?xml version="1.0" standalone="no"?>
<!DOCTYPE svg PUBLIC "-//W3C//DTD SVG 20010904//EN"
 "http://www.w3.org/TR/2001/REC-SVG-20010904/DTD/svg10.dtd">
<svg version="1.0" xmlns="http://www.w3.org/2000/svg"
 width="211.000000pt" height="211.000000pt" viewBox="0 0 211.000000 211.000000"
 preserveAspectRatio="xMidYMid meet">
<metadata>
Created by potrace 1.11, written by Peter Selinger 2001-2013
</metadata>
<g transform="translate(0.000000,211.000000) scale(0.100000,-0.100000)"
fill="#000000" stroke="none">
<path d="M193 2085 c-17 -7 -39 -27 -48 -44 -8 -17 -22 -31 -30 -31 -56 0
-101 -66 -111 -166 l-6 -59 63 -2 c81 -3 120 -17 193 -66 77 -52 132 -110 147
-154 18 -55 7 -142 -26 -206 -15 -32 -59 -96 -96 -144 -81 -106 -181 -263
-215 -340 -50 -112 -58 -164 -61 -401 l-4 -222 30 0 c43 0 82 17 117 51 l31
30 62 -42 c33 -24 61 -50 61 -59 0 -8 -9 -33 -21 -55 -60 -113 -173 -172 -251
-131 -28 15 -28 14 -28 -15 l0 -29 219 0 219 0 10 33 c6 17 16 56 22 85 7 28
15 52 18 52 4 0 24 -5 45 -11 32 -9 36 -12 27 -29 -5 -10 -10 -37 -10 -59 0
-78 -59 -71 631 -71 340 0 619 2 619 4 0 2 -7 20 -15 40 -8 20 -22 69 -31 109
-13 61 -13 85 -3 155 7 45 15 79 19 75 4 -4 15 -28 24 -53 24 -63 63 -110 103
-126 30 -13 38 -13 76 4 23 11 61 36 85 57 l42 37 0 150 0 150 -35 -26 c-113
-86 -194 -85 -237 3 -19 39 -22 61 -20 141 3 183 -18 325 -90 600 -42 159 -41
206 6 274 48 69 113 122 206 167 14 6 58 14 99 17 l74 5 -6 51 c-13 109 -42
162 -97 173 -19 3 -36 17 -49 38 -26 45 -76 61 -126 41 -32 -14 -40 -14 -65
-1 -82 42 -170 -15 -170 -109 0 -26 -6 -39 -22 -50 -21 -13 -31 -10 -131 39
-165 81 -251 100 -472 99 -200 0 -276 -14 -394 -73 l-61 -30 0 25 c0 84 -103
144 -168 98 -21 -14 -26 -14 -63 0 -47 19 -45 19 -86 1z m98 -76 l20 -29 33
35 c19 19 43 35 55 35 51 0 81 -81 45 -121 -14 -16 -13 -18 15 -24 28 -6 71
-46 71 -66 0 -4 -4 -19 -10 -34 l-10 -26 -74 75 c-57 57 -95 85 -161 117 -85
42 -87 44 -66 60 27 22 56 14 82 -22z m1449 26 c16 -8 34 -23 40 -32 9 -17 12
-16 33 8 30 35 52 41 77 21 22 -18 21 -18 -66 -62 -66 -33 -106 -62 -161 -117
l-73 -74 -10 27 c-13 34 5 73 45 94 17 8 31 15 32 16 2 0 -2 14 -9 30 -14 40
-3 83 25 94 31 12 34 12 67 -5z m-835 -30 c-66 -7 -138 -15 -160 -19 -33 -5
-36 -5 -16 4 40 17 120 28 211 28 l85 -1 -120 -12z m-219 -766 c58 -116 147
-180 330 -240 99 -32 102 -34 122 -75 l21 -42 -23 -15 c-50 -33 -71 -129 -41
-187 34 -66 115 -95 180 -64 92 43 108 163 33 241 -22 23 -27 33 -16 33 18 0
86 -85 117 -147 11 -23 26 -73 33 -111 10 -59 9 -79 -5 -137 -19 -77 -61 -165
-113 -234 -41 -55 -55 -60 -203 -82 -91 -13 -405 -7 -476 10 -22 5 -73 16
-113 25 -152 33 -255 87 -349 182 -91 94 -139 238 -114 348 14 61 50 141 91
201 15 22 39 63 53 90 14 28 54 84 90 125 l65 74 83 2 c65 1 97 7 144 27 33
14 61 26 62 26 2 1 14 -22 29 -50z m536 -316 c28 -15 45 -29 40 -31 -12 -4
-88 33 -97 48 -10 16 4 12 57 -17z"/>
<path d="M314 1098 c5 -30 3 -38 -17 -51 -51 -33 -72 -128 -42 -187 34 -66
115 -95 180 -64 119 56 103 232 -25 275 -19 7 -50 23 -69 37 l-34 25 7 -35z"/>
<path d="M559 723 c-9 -11 -14 -42 -14 -92 1 -64 6 -87 32 -142 75 -161 194
-214 278 -125 59 63 74 182 30 234 -30 36 -138 93 -229 121 -82 25 -80 25 -97
4z m210 -72 c32 -17 73 -42 91 -57 32 -27 32 -29 27 -90 -14 -184 -165 -218
-264 -61 -21 33 -24 48 -19 84 3 24 13 57 22 75 17 33 61 78 76 78 5 0 35 -13
67 -29z"/>
<path d="M2068 40 l-28 -40 30 0 c28 0 30 2 30 40 0 22 -1 40 -2 40 -2 -1 -15
-19 -30 -40z"/>
</g>
</svg>
